<svg xmlns="http://www.w3.org/2000/svg" width="26.5" height="26.5" viewBox="0 0 26.5 26.5"><defs><style>.a{fill:#fff;}</style></defs><g transform="translate(-392 -347.5)"><g transform="translate(364 335.5)"><path class="a" d="M153.459,25.153h0a.231.231,0,0,0-.211-.135h-4.417V12.232A.233.233,0,0,0,148.6,12H144.88a.233.233,0,0,0-.232.232V25.018h-4.417a.233.233,0,0,0-.211.136.23.23,0,0,0,.038.25l6.508,7.438a.231.231,0,0,0,.174.08.235.235,0,0,0,.176-.081l6.508-7.437A.231.231,0,0,0,153.459,25.153Z" transform="translate(-105.489)"/><path class="a" d="M52.175,337.579H30.325V332H28v6.741a1.164,1.164,0,0,0,1.162,1.162H53.338a1.164,1.164,0,0,0,1.162-1.162V332H52.175Z" transform="translate(0 -301.404)"/></g></g></svg>