<svg xmlns="http://www.w3.org/2000/svg" width="113" height="113" viewBox="0 0 113 113"><defs><style>.a{fill:#7c0a0a;stroke:red;stroke-width:3px;}.b{fill:#ffc107;}.c{fill:#dea806;}.d{fill:#607d8b;}.e{fill:#546d79;}.f{fill:#ffd54f;}.g{fill:#deb945;}</style></defs><g transform="translate(-646.228 -2840.715)"><g transform="translate(647.728 2842.215)"><circle class="a" cx="55" cy="55" r="55" transform="translate(0 0)"/></g><g transform="translate(650.728 2842.215)"><g transform="translate(13.36 12.766)"><path class="b" d="M-5139.128-725.9a21.9,21.9,0,0,1-8.559,17.344,10.565,10.565,0,0,0-4.1,6.338l-.16-.031h-19.233l-.225.031a9.563,9.563,0,0,0-3.655-6.054,21.908,21.908,0,0,1-8.461-22.294,22.236,22.236,0,0,1,17.149-16.9,22.8,22.8,0,0,1,18.944,4.415A21.851,21.851,0,0,1-5139.128-725.9Z" transform="translate(5199.772 767.74)"/><path class="c" d="M-5161.936-747.967a22.6,22.6,0,0,0-4.726.5,22.052,22.052,0,0,0-16.87,16.9,22.091,22.091,0,0,0,8.323,22.294,9.592,9.592,0,0,1,3.6,6.055l.221-.031h9.46v-45.721Z" transform="translate(5199.987 767.741)"/><g transform="translate(56.927 10.388)"><path class="b" d="M-5113.514-747.939a2.345,2.345,0,0,1-1.671-.694,2.366,2.366,0,0,1,0-3.346l4.364-4.364a2.367,2.367,0,0,1,3.347,0,2.37,2.37,0,0,1,0,3.346l-4.365,4.364A2.374,2.374,0,0,1-5113.514-747.939Z" transform="translate(5115.877 757.036)"/><path class="b" d="M-5092.88-710.033h-6.171a2.367,2.367,0,0,1-2.365-2.365,2.367,2.367,0,0,1,2.365-2.365h6.171a2.366,2.366,0,0,1,2.366,2.365A2.366,2.366,0,0,1-5092.88-710.033Z" transform="translate(5109.999 743.65)"/><path class="b" d="M-5109.149-670.755a2.347,2.347,0,0,1-1.671-.694l-4.364-4.364a2.366,2.366,0,0,1,0-3.346,2.366,2.366,0,0,1,3.346,0l4.365,4.364a2.37,2.37,0,0,1,0,3.346A2.364,2.364,0,0,1-5109.149-670.755Z" transform="translate(5115.877 733.257)"/></g><path class="d" d="M-5143.823-670.895a9.359,9.359,0,0,0-.157,1.64v7a5.545,5.545,0,0,1-5.519,5.519h-7.883c-2.648,0-5.518-2.018-5.518-6.433v-5.581a9.732,9.732,0,0,0-.221-2.144l.221-.031h18.92Z" transform="translate(5191.645 740.016)"/><path class="e" d="M-5153.44-670.926h-9.459l-.221.031a9.732,9.732,0,0,1,.221,2.144v5.581c0,4.415,2.87,6.433,5.518,6.433h3.941Z" transform="translate(5191.591 740.016)"/><path class="b" d="M-5148.429-763.639a2.366,2.366,0,0,1-2.365-2.365v-6.171a2.366,2.366,0,0,1,2.365-2.366,2.366,2.366,0,0,1,2.365,2.366V-766A2.365,2.365,0,0,1-5148.429-763.639Z" transform="translate(5186.634 774.54)"/><path class="c" d="M-5148.429-774.54a2.366,2.366,0,0,0-2.365,2.366V-766a2.366,2.366,0,0,0,2.365,2.365Z" transform="translate(5186.623 774.54)"/><path class="b" d="M-5186.333-747.939a2.345,2.345,0,0,1-1.671-.694l-4.365-4.364a2.366,2.366,0,0,1,0-3.346,2.366,2.366,0,0,1,3.346,0l4.364,4.364a2.367,2.367,0,0,1,0,3.346A2.38,2.38,0,0,1-5186.333-747.939Z" transform="translate(5203.453 767.424)"/><path class="c" d="M-5192.369-755.863a2.366,2.366,0,0,0,0,3.346l4.365,4.364a2.364,2.364,0,0,0,1.671.694,2.345,2.345,0,0,0,1.67-.694Z" transform="translate(5203.453 766.947)"/><path class="b" d="M-5202.034-710.033h-6.172a2.365,2.365,0,0,1-2.364-2.365,2.365,2.365,0,0,1,2.364-2.365h6.172a2.366,2.366,0,0,1,2.364,2.365A2.366,2.366,0,0,1-5202.034-710.033Z" transform="translate(5210.57 754.038)"/><path class="c" d="M-5199.67-710.778h-10.9a2.366,2.366,0,0,0,2.364,2.366h6.172A2.366,2.366,0,0,0-5199.67-710.778Z" transform="translate(5210.57 752.54)"/><path class="b" d="M-5190.7-670.755a2.348,2.348,0,0,1-1.671-.694,2.366,2.366,0,0,1,0-3.346l4.365-4.364a2.366,2.366,0,0,1,3.346,0,2.367,2.367,0,0,1,0,3.346l-4.364,4.364A2.361,2.361,0,0,1-5190.7-670.755Z" transform="translate(5203.453 743.645)"/><path class="c" d="M-5184.187-678.679l-7.706,7.707a2.362,2.362,0,0,0,1.671.694,2.345,2.345,0,0,0,1.671-.694l4.364-4.364a2.362,2.362,0,0,0,0-3.343Z" transform="translate(5202.978 743.168)"/><path class="f" d="M-5136.063-718.922a2.365,2.365,0,0,1-2.365-2.365,8.68,8.68,0,0,0-8.673-8.672,2.366,2.366,0,0,1-2.365-2.365,2.366,2.366,0,0,1,2.365-2.365,13.419,13.419,0,0,1,13.4,13.4A2.366,2.366,0,0,1-5136.063-718.922Z" transform="translate(5186.171 761.338)"/><path class="g" d="M-5148.721-730.724c-.243,0-.492,0-.745.012a2.366,2.366,0,0,0,2.365,2.365,8.68,8.68,0,0,1,8.673,8.672,2.365,2.365,0,0,0,2.365,2.365C-5134.758-717.31-5134.314-730.724-5148.721-730.724Z" transform="translate(5186.159 759.9)"/></g></g></g></svg>