<svg xmlns="http://www.w3.org/2000/svg" xmlns:xlink="http://www.w3.org/1999/xlink" width="113" height="113" viewBox="0 0 113 113"><defs><style>.a{fill:none;}.b{fill:#333;stroke:red;stroke-width:3px;}.c{clip-path:url(#a);}.d{fill:url(#b);}.e{fill:#3c67be;}.f{fill:#fff;}</style><clipPath id="a"><circle class="a" cx="25.209" cy="25.209" r="25.209"/></clipPath><radialGradient id="b" cx="0.291" cy="0.998" r="1.01" gradientTransform="translate(0.001)" gradientUnits="objectBoundingBox"><stop offset="0" stop-color="#ffd676"/><stop offset="0.246" stop-color="#f2a454"/><stop offset="0.379" stop-color="#f05c3c"/><stop offset="0.7" stop-color="#c22f86"/><stop offset="0.957" stop-color="#6665ad"/><stop offset="0.985" stop-color="#5c6cb2"/></radialGradient></defs><g transform="translate(4138.326 1896.301)"><g transform="translate(-4136.826 -1894.801)"><g transform="translate(0)"><ellipse class="b" cx="55" cy="55" rx="55" ry="55"/></g></g><g transform="translate(-4092.577 -1854.035)"><g class="c"><path class="d" d="M-3871.283-1666.178a11.936,11.936,0,0,1-11.908,11.965h-30.915a11.936,11.936,0,0,1-11.908-11.965v-30.688a11.937,11.937,0,0,1,11.908-11.965h30.915a11.937,11.937,0,0,1,11.908,11.965Z" transform="translate(3923.857 1706.732)"/></g></g><g transform="translate(-4121.627 -1875.911)"><path class="e" d="M23.449,0A23.449,23.449,0,1,1,0,23.449,23.449,23.449,0,0,1,23.449,0Z" transform="translate(0 0.675) rotate(-0.825)"/><path class="f" d="M-3983.144-1753.261v-2.221a1.176,1.176,0,0,1,1.228-1.334h3.116v-4.76l-4.292-.018c-4.763,0-5.846,3.55-5.846,5.823v2.511h-2.754v5.554h2.778v13.889h5.555v-13.889h4.123l.2-2.181.307-3.373Z" transform="translate(4008.994 1771.558)"/></g><g transform="translate(-4080.003 -1843.109)"><path class="f" d="M-3846.559-1622.117h-11.69a8.322,8.322,0,0,1-8.312-8.312V-1642.9a8.322,8.322,0,0,1,8.313-8.312h11.69a8.321,8.321,0,0,1,8.312,8.312v12.474A8.321,8.321,0,0,1-3846.559-1622.117Zm-11.69-26.968a6.188,6.188,0,0,0-6.181,6.181v12.474a6.188,6.188,0,0,0,6.181,6.181h11.69a6.188,6.188,0,0,0,6.181-6.181V-1642.9a6.188,6.188,0,0,0-6.181-6.181Z" transform="translate(3866.562 1651.216)"/><path class="f" d="M-3829.9-1605.254a7.74,7.74,0,0,1-7.731-7.731,7.864,7.864,0,0,1,2.37-5.61,7.392,7.392,0,0,1,5.4-2.121,8,8,0,0,1,5.777,2.346,7.482,7.482,0,0,1,1.916,5.412h0a7.923,7.923,0,0,1-2.289,5.434A7.611,7.611,0,0,1-3829.9-1605.254Zm-.179-12.859a4.808,4.808,0,0,0-3.367,1.388,5.241,5.241,0,0,0-1.58,3.741,5.131,5.131,0,0,0,5.126,5.126,5.165,5.165,0,0,0,5.125-5.154c.068-3.1-1.863-5-5.164-5.1Z" transform="translate(3844.061 1627.494)"/><circle class="f" cx="1.803" cy="1.803" r="1.803" transform="translate(20.272 4.757)"/></g></g></svg>