<svg xmlns="http://www.w3.org/2000/svg" width="113" height="113" viewBox="0 0 113 113"><defs><style>.a{fill:#7c0000;stroke:red;stroke-width:3px;}.b{fill:#ffe9c7;}.c{fill:#ffdeb3;}.d{fill:#dd4343;}.e{fill:#ffdcc5;}.f{fill:#ffcbae;}.g{fill:#f96262;}</style></defs><g transform="translate(1.372 1.911)"><g transform="translate(0.128 -0.411)"><g transform="translate(0 0)"><circle class="a" cx="55" cy="55" r="55"/></g></g><g transform="translate(11.531 23.425)"><path class="b" d="M-5422.578-1293.323a3.2,3.2,0,0,1-2.449-.23,3.214,3.214,0,0,1-1.339-4.343,9.65,9.65,0,0,0-4.017-13.028,3.213,3.213,0,0,1-1.339-4.343,3.213,3.213,0,0,1,4.342-1.339,16.086,16.086,0,0,1,6.7,21.713,3.2,3.2,0,0,1-1.894,1.569Z" transform="translate(5488.427 1328.342)"/><path class="b" d="M-5389.184-1329a3.2,3.2,0,0,1-2.448-.23,3.214,3.214,0,0,1-1.34-4.343,22.344,22.344,0,0,0,1.608-17.141,22.35,22.35,0,0,0-10.983-13.258,3.213,3.213,0,0,1-1.339-4.343,3.213,3.213,0,0,1,4.343-1.339,28.952,28.952,0,0,1,12.053,39.084,3.2,3.2,0,0,1-1.894,1.569Z" transform="translate(5466.584 1370.024)"/><g transform="translate(17.213 17.423)"><path class="c" d="M-5353.672-1269.664a3.213,3.213,0,0,0,1.339,4.343,3.2,3.2,0,0,0,2.448.23,3.2,3.2,0,0,0,1.894-1.569,28.829,28.829,0,0,0,2.055-22.034l-6.128,1.89a22.348,22.348,0,0,1-1.608,17.141Z" transform="translate(5410.073 1288.695)"/><path class="c" d="M-5406.718-1261.785a3.213,3.213,0,0,0,1.339,4.343,3.2,3.2,0,0,0,2.449.23,3.2,3.2,0,0,0,1.893-1.569,16.014,16.014,0,0,0,1.143-12.241l-6.139,1.893A9.613,9.613,0,0,1-5406.718-1261.785Z" transform="translate(5451.754 1274.809)"/><path class="d" d="M-5606.365-1151.475a3.214,3.214,0,0,1-4.018-2.124l-5.05-16.377a3.213,3.213,0,0,1,2.123-4.017,3.213,3.213,0,0,1,4.018,2.124l5.051,16.377A3.214,3.214,0,0,1-5606.365-1151.475Z" transform="translate(5615.577 1198.678)"/></g><path class="e" d="M-5583.159-1306.369a3.211,3.211,0,0,1-2.449-.229l-.919-.486a37.913,37.913,0,0,0-29.08-2.728,3.213,3.213,0,0,1-4.018-2.124l-5.051-16.377a3.214,3.214,0,0,1,2.124-4.018,37.911,37.911,0,0,0,22.492-18.633l.485-.919a3.216,3.216,0,0,1,3.142-1.7,3.213,3.213,0,0,1,2.77,2.252l12.627,40.943a3.212,3.212,0,0,1-1.021,3.422,3.2,3.2,0,0,1-1.1.6Z" transform="translate(5639.43 1357.115)"/><path class="f" d="M-5612.361-1236.723l2.525,8.189a3.214,3.214,0,0,0,4.018,2.124,37.911,37.911,0,0,1,29.08,2.729l.919.486a3.214,3.214,0,0,0,2.45.23,3.206,3.206,0,0,0,1.1-.6,3.214,3.214,0,0,0,1.021-3.421l-6.313-20.472Z" transform="translate(5629.681 1273.714)"/><path class="g" d="M-5682.945-1251.81a11.8,11.8,0,0,0-7.787,14.732,11.8,11.8,0,0,0,14.731,7.787l8.188-2.525-6.944-22.519Z" transform="translate(5691.256 1279.119)"/><path class="d" d="M-5674.077-1187.992l8.188-2.525-3.473-11.259-19.447,6A11.8,11.8,0,0,0-5674.077-1187.992Z" transform="translate(5689.333 1237.82)"/></g></g></svg>