<svg xmlns="http://www.w3.org/2000/svg" width="82" height="82" viewBox="0 0 82 82"><defs><style>.a{fill:#6d2424;}.b{fill:#bd2026;}.c{fill:#a89265;}.d{fill:#d1c4a7;}.e{fill:#e5decf;}.f{fill:#c18080;}.g{fill:none;stroke:#c18080;stroke-linecap:round;stroke-linejoin:round;stroke-width:17.017px;}</style></defs><g transform="translate(0 -0.045)"><circle class="a" cx="41" cy="41" r="41" transform="translate(0 0.045)"/><g transform="translate(10.451 16.079)"><g transform="translate(0 0)"><path class="b" d="M-3409.8,114.68a.585.585,0,0,1-.746-.509,23.674,23.674,0,0,1-.378-3.54c-.26-.358-.5-.756-.73-1.138q-.108-.13-.21-.265l-17.91-.228H-3441v42.655h31.2Z" transform="translate(3441 -105.997)"/><path class="c" d="M-3382.963,106.9l-24.6-2.9h-1.181l-1.4,38.907v3.253h23.953a9.047,9.047,0,0,1,3.221,1.091Z" transform="translate(3414.165 -101.65)"/><path class="d" d="M-3391.588,109.7l-13.362-10.2h-15.107v41.268h22.516s3.956-.055,5.935,2.626l.018-2.4Z" transform="translate(3422.791 -97.74)"/><path class="e" d="M-3202.071,131.087c-.014.111-.018.173-.018.173v39.6c0-.134.007-.261.018-.387Z" transform="translate(3233.274 -125.201)"/><path class="e" d="M-3396.4,131.653v-39.6a6.588,6.588,0,0,0-6.864-6.059h-22.307v41.257h21.878S-3396.4,126.908-3396.4,131.653Z" transform="translate(3427.583 -85.995)"/><path class="f" d="M-3365.693,148h-16.725a1.131,1.131,0,0,1-1.01-1.221,1.131,1.131,0,0,1,1.01-1.221h16.725a1.131,1.131,0,0,1,1.01,1.221A1.131,1.131,0,0,1-3365.693,148Z" transform="translate(3390.943 -137.783)"/><path class="f" d="M-3365.693,209.5h-16.725a1.131,1.131,0,0,1-1.01-1.221,1.131,1.131,0,0,1,1.01-1.221h16.725a1.131,1.131,0,0,1,1.01,1.221A1.131,1.131,0,0,1-3365.693,209.5Z" transform="translate(3390.943 -191.252)"/><path class="f" d="M-3365.693,270.992h-16.725a1.131,1.131,0,0,1-1.01-1.222,1.131,1.131,0,0,1,1.01-1.221h16.725a1.131,1.131,0,0,1,1.01,1.221A1.131,1.131,0,0,1-3365.693,270.992Z" transform="translate(3390.943 -244.721)"/><path class="f" d="M-3365.693,332.487h-16.725a1.131,1.131,0,0,1-1.01-1.222,1.131,1.131,0,0,1,1.01-1.221h16.725a1.131,1.131,0,0,1,1.01,1.221A1.131,1.131,0,0,1-3365.693,332.487Z" transform="translate(3390.943 -298.189)"/><path class="g" d="M-3361.639,104" transform="translate(3371.998 -101.65)"/></g><g transform="translate(31.203 0)"><path class="b" d="M-3201.951,114.68a.585.585,0,0,0,.746-.509,23.673,23.673,0,0,0,.377-3.54c.26-.358.5-.756.73-1.138q.108-.13.21-.265l17.91-.228h11.228v42.655h-31.2Z" transform="translate(3201.951 -105.997)"/><path class="c" d="M-3201.951,106.9l24.6-2.9h1.181l1.4,38.907v3.253h-23.953a9.047,9.047,0,0,0-3.221,1.091Z" transform="translate(3201.951 -101.65)"/><path class="d" d="M-3201.951,109.7l13.362-10.2h15.107v41.268H-3196s-3.956-.055-5.935,2.626l-.018-2.4Z" transform="translate(3201.951 -97.74)"/><path class="e" d="M-3201.951,131.087c.013.111.018.173.018.173v39.6c0-.134-.007-.261-.018-.387Z" transform="translate(3201.951 -125.201)"/><path class="e" d="M-3201.813,131.653v-39.6a6.588,6.588,0,0,1,6.864-6.059h22.307v41.257h-21.878S-3201.813,126.908-3201.813,131.653Z" transform="translate(3201.831 -85.995)"/><path class="f" d="M-3163.072,148h16.725a1.131,1.131,0,0,0,1.01-1.221,1.131,1.131,0,0,0-1.01-1.221h-16.725a1.131,1.131,0,0,0-1.01,1.221A1.131,1.131,0,0,0-3163.072,148Z" transform="translate(3169.025 -137.783)"/><path class="f" d="M-3163.072,209.5h16.725a1.131,1.131,0,0,0,1.01-1.221,1.131,1.131,0,0,0-1.01-1.221h-16.725a1.131,1.131,0,0,0-1.01,1.221A1.131,1.131,0,0,0-3163.072,209.5Z" transform="translate(3169.025 -191.252)"/><path class="f" d="M-3163.072,270.992h16.725a1.131,1.131,0,0,0,1.01-1.222,1.131,1.131,0,0,0-1.01-1.221h-16.725a1.131,1.131,0,0,0-1.01,1.221A1.131,1.131,0,0,0-3163.072,270.992Z" transform="translate(3169.025 -244.721)"/><path class="f" d="M-3163.072,332.487h16.725a1.131,1.131,0,0,0,1.01-1.222,1.131,1.131,0,0,0-1.01-1.221h-16.725a1.131,1.131,0,0,0-1.01,1.221A1.131,1.131,0,0,0-3163.072,332.487Z" transform="translate(3169.025 -298.189)"/><path class="g" d="M-3042.264,104" transform="translate(3063.108 -101.65)"/></g></g></g></svg>