<svg xmlns="http://www.w3.org/2000/svg" xmlns:xlink="http://www.w3.org/1999/xlink" width="82.472" height="90.807" viewBox="0 0 82.472 90.807"><defs><style>.a{fill:none;}.b{clip-path:url(#a);}.c{fill:#e23b3b;}.d{fill:#cc2929;}.e{fill:#b72020;}.f{fill:#fff;}.g{fill:#a57272;}.h{fill:#0e9347;}.i{fill:#0d8944;}.j{fill:#3bb54a;}.k{fill:#89c763;}</style><clipPath id="a"><circle class="a" cx="41.236" cy="41.236" r="41.236"/></clipPath></defs><g transform="translate(5924.194 -99.503)"><g transform="translate(-5924.194 99.503)"><g class="b" transform="translate(0 0)"><rect class="c" width="87.289" height="15.217" transform="translate(-1.807 31.353)"/><rect class="d" width="87.289" height="39.798" transform="translate(-4.817 -4.933)"/><rect class="e" width="23.578" height="15.384" transform="translate(0.701 13.294)"/><rect class="e" width="23.578" height="15.384" transform="translate(28.293 13.294)"/><rect class="e" width="23.578" height="15.384" transform="translate(55.884 13.294)"/><rect class="e" width="23.578" height="15.384" transform="translate(0.701 -5.77)"/><rect class="e" width="23.578" height="15.384" transform="translate(28.293 -5.77)"/><rect class="e" width="23.578" height="15.384" transform="translate(55.884 -5.77)"/><path class="f" d="M-5777.331,266.162l-1.666-.151c.129-1.423.054-17.085,0-25.169a.834.834,0,0,1,.243-.6.836.836,0,0,1,.593-.247h32.273a.836.836,0,0,1,.836.836v25.25h-1.672V241.672h-30.6C-5777.293,245.943-5777.179,264.483-5777.331,266.162Z" transform="translate(5803.279 -216.506)"/><path class="g" d="M-5992.3,378h90.132l-13.545,35.9-19.4,9.248L-6002,415.29" transform="translate(5988.99 -331.43)"/><path class="f" d="M-5771.671,247.167l-1.163,1.163v.473l1.636-1.636Z" transform="translate(5798.144 -222.474)"/><path class="f" d="M-5740.894,264.131v-.758l-2.576-2.575,2.576-2.576v-.757l-2.576-2.575,2.576-2.576v-.758l-2.576-2.576,1.814-1.814h-.473l-1.578,1.578-1.578-1.578h-.473l1.814,1.814-2.718,2.718-2.718-2.718,1.814-1.815h-.473l-1.578,1.578-1.579-1.578h-.473l1.815,1.815-2.718,2.718-2.718-2.718,1.814-1.815h-.473l-1.578,1.578-1.578-1.578h-.473l1.814,1.815-2.718,2.718-2.718-2.718,1.814-1.814h-.473l-1.578,1.578-1.578-1.578h-.473l1.814,1.814-2.718,2.718-2.717-2.718,1.814-1.815h-.473l-1.578,1.578-1.578-1.578h-.473l1.815,1.815-2.718,2.718-2.539-2.539v.473l2.3,2.3-2.3,2.3v.473l2.539-2.539,2.718,2.718-2.718,2.718-2.539-2.539v.473l2.3,2.3-2.3,2.3v.473l2.539-2.539,2.718,2.718-2.718,2.718-2.539-2.539v.473l2.3,2.3-2.3,2.3v.473l2.539-2.539,2.718,2.718-2.17,2.17.237.236,2.17-2.17,2.17,2.17.236-.236-2.169-2.17,2.717-2.718,2.718,2.718-2.17,2.17.236.236,2.17-2.17,2.17,2.17.236-.236-2.17-2.17,2.718-2.718,2.718,2.718-2.17,2.17.236.236,2.17-2.17,2.17,2.17.236-.236-2.17-2.17,2.718-2.718,2.718,2.718-2.17,2.17.236.236,2.17-2.17,2.169,2.17.236-.236-2.169-2.17,2.718-2.718,2.718,2.718-2.17,2.17.236.236,2.17-2.17,2.17,2.17.236-.236-2.17-2.17Zm-.094-6.287-2.718,2.718-2.718-2.718,2.718-2.718Zm-2.718-8.626,2.718,2.718-2.718,2.718-2.718-2.718Zm-.236,5.672-2.718,2.718-2.718-2.718,2.718-2.718Zm-2.954,2.954-2.718,2.718-2.718-2.718,2.718-2.718Zm-2.718-8.626,2.718,2.718-2.718,2.718-2.718-2.718Zm-.236,5.672-2.718,2.718-2.718-2.718,2.718-2.718Zm-2.955,2.954-2.718,2.718-2.718-2.718,2.718-2.718Zm-2.718-8.626,2.718,2.718-2.718,2.718-2.718-2.718Zm-.236,5.672-2.718,2.718-2.718-2.718,2.718-2.718Zm-2.954,2.954-2.718,2.718-2.717-2.718,2.717-2.718Zm-2.718-8.626,2.718,2.718-2.718,2.718-2.717-2.718Zm-.236,5.672-2.718,2.718-2.717-2.718,2.717-2.718Zm-8.39-2.954,2.718-2.718,2.718,2.718-2.718,2.718Zm0,5.908,2.718-2.718,2.718,2.718-2.718,2.718Zm2.718,8.626-2.718-2.718,2.718-2.718,2.718,2.718Zm.237-5.672,2.717-2.718,2.718,2.718-2.718,2.718Zm5.671,5.672-2.717-2.718,2.717-2.718,2.718,2.718Zm.237-5.672,2.718-2.718,2.718,2.718-2.718,2.718Zm5.672,5.672-2.718-2.718,2.718-2.718,2.718,2.718Zm.236-5.672,2.718-2.718,2.718,2.718-2.718,2.718Zm5.672,5.672-2.718-2.718,2.718-2.718,2.718,2.718Zm.236-5.672,2.718-2.718,2.718,2.718-2.718,2.718Zm2.954,2.954,2.718-2.718,2.718,2.718-2.718,2.718Z" transform="translate(5798.144 -222.475)"/><path class="f" d="M-5772.833,365.558l1.755,1.755.236-.236-1.991-1.991Z" transform="translate(5798.144 -320.675)"/></g></g><g transform="translate(-5900.62 152.156)"><path class="h" d="M-5739.641,415.853l6.748,21.741a2.075,2.075,0,0,1-1.362,2.59l-39.53,12.27a2.075,2.075,0,0,1-2.59-1.363l-6.749-21.741a2.076,2.076,0,0,1,1.363-2.59l39.529-12.27A2.077,2.077,0,0,1-5739.641,415.853Z" transform="translate(5783.216 -414.394)"/><path class="i" d="M-5638.48,415.539a2.106,2.106,0,0,0-2.5-1.067l-20.654,6.411a7.24,7.24,0,0,0,8.659,3.813,7.719,7.719,0,0,0,3.084-1.932,6.926,6.926,0,0,0,6.424,1.148A7.372,7.372,0,0,0-5638.48,415.539Z" transform="translate(5681.964 -414.376)"/><path class="j" d="M-5723.975,436.835l4.294,13.835a4.151,4.151,0,0,0-2.726,5.18l-31.624,9.816a4.151,4.151,0,0,0-5.18-2.726l-4.294-13.835a4.151,4.151,0,0,0,2.726-5.18l31.624-9.816A4.151,4.151,0,0,0-5723.975,436.835Z" transform="translate(5766.8 -430.809)"/><g transform="translate(11.28 7.73)"><ellipse class="h" cx="8.278" cy="9.313" rx="8.278" ry="9.313" transform="translate(3.262 4.908) rotate(-17.245)"/><circle class="h" cx="2.07" cy="2.07" r="2.07" transform="translate(0 12.96)"/><circle class="h" cx="2.07" cy="2.07" r="2.07" transform="translate(23.197 6.304) rotate(-17.245)"/></g><path class="k" d="M-5650.285,495.453a3.049,3.049,0,0,0-3.885-2.044.977.977,0,0,0-1.295-.681.977.977,0,0,0-.681,1.295l-.988.307a.978.978,0,0,0-.682,1.3.978.978,0,0,0,1.295.681l2.965-.92a.978.978,0,0,1,1.295.682.978.978,0,0,1-.681,1.295l-1.977.614a3.049,3.049,0,0,0-2.044,3.885,3.049,3.049,0,0,0,3.885,2.044.977.977,0,0,0,1.295.681.978.978,0,0,0,.682-1.295l.988-.307a.977.977,0,0,0,.681-1.295.978.978,0,0,0-1.295-.681l-2.965.92a.978.978,0,0,1-1.295-.681.978.978,0,0,1,.682-1.295l1.976-.614A3.049,3.049,0,0,0-5650.285,495.453Z" transform="translate(5678.833 -479.578)"/></g><g transform="translate(-5915.714 146.967)"><path class="h" d="M-5824.792,409.3l-39.8,11.363a2.076,2.076,0,0,1-2.558-1.422l-6.25-21.89a2.075,2.075,0,0,1,1.422-2.558l39.8-11.363a2.076,2.076,0,0,1,2.559,1.422l6.25,21.89A2.076,2.076,0,0,1-5824.792,409.3Z" transform="translate(5873.479 -383.347)"/><path class="i" d="M-5693.453,498.057a6.925,6.925,0,0,0-4.749,4.476,7.719,7.719,0,0,0-3.639.07,7.24,7.24,0,0,0-5.161,7.93l20.8-5.937a2.1,2.1,0,0,0,1.507-2.26A7.371,7.371,0,0,0-5693.453,498.057Z" transform="translate(5734.893 -478.647)"/><path class="j" d="M-5813.376,424.408l-31.84,9.09a4.151,4.151,0,0,0-5.116-2.844l-3.978-13.93a4.152,4.152,0,0,0,2.845-5.116l31.84-9.09a4.151,4.151,0,0,0,5.116,2.844l3.977,13.93A4.152,4.152,0,0,0-5813.376,424.408Z" transform="translate(5857.515 -399.312)"/><g transform="translate(11.085 7.468)"><ellipse class="h" cx="8.278" cy="9.313" rx="8.278" ry="9.313" transform="translate(3.493 4.545) rotate(-15.934)"/><circle class="h" cx="2.07" cy="2.07" r="2.07" transform="translate(0 12.567)"/><circle class="h" cx="2.07" cy="2.07" r="2.07" transform="translate(23.391 6.397) rotate(-15.934)"/></g><path class="k" d="M-5745.987,463.9l-1.99.568a.978.978,0,0,1-1.279-.711.978.978,0,0,1,.711-1.279l2.985-.852a.978.978,0,0,0,.711-1.279.978.978,0,0,0-1.279-.711l-1,.284a.977.977,0,0,0-1.279-.711.978.978,0,0,0-.711,1.279,3.049,3.049,0,0,0-2.133,3.837,3.05,3.05,0,0,0,3.838,2.133l1.99-.568a.977.977,0,0,1,1.278.711.977.977,0,0,1-.711,1.279l-2.984.852a.977.977,0,0,0-.711,1.279.977.977,0,0,0,1.279.711l.994-.284a.978.978,0,0,0,1.279.711.978.978,0,0,0,.711-1.279,3.049,3.049,0,0,0,2.133-3.837A3.049,3.049,0,0,0-5745.987,463.9Z" transform="translate(5771.793 -446.481)"/></g></g></svg>