<svg xmlns="http://www.w3.org/2000/svg" width="82" height="89.785" viewBox="0 0 82 89.785"><defs><style>.a{fill:#c44343;}.b{fill:#338af3;}.c{fill:#f0f0f0;}.d{fill:#ffda44;}.e{fill:#f4ad9a;}</style></defs><path class="a" d="M39.269,0A39.269,39.269,0,1,1,0,39.269,39.269,39.269,0,0,1,39.269,0Z" transform="translate(0 11.247)"/><g transform="translate(11.007 34.317)"><rect class="b" width="56.524" height="10.799" transform="translate(0 0)"/><rect class="c" width="56.524" height="10.799" transform="translate(0 10.799)"/><rect class="b" width="56.524" height="10.799" transform="translate(0 21.599)"/><path class="d" d="M-4313.3,325.327l-1.69.795.9,1.637-1.835-.351-.232,1.854-1.278-1.363-1.279,1.363-.232-1.854-1.835.351.9-1.637-1.69-.795,1.69-.795-.9-1.637,1.835.351.232-1.854,1.279,1.363,1.278-1.363.232,1.854,1.835-.351-.9,1.637Z" transform="translate(4345.695 -309.129)"/></g><path class="e" d="M-4292.993,38.8a1.442,1.442,0,0,0-1.142-1.009l-7.423-1.256-3.174-6.828a1.443,1.443,0,0,0-1.275-.834,1.442,1.442,0,0,0-1.312.774l-3.489,6.672-7.474.909a1.442,1.442,0,0,0-1.188.955,1.443,1.443,0,0,0,.331,1.487l5.268,5.38-1.445,7.389a1.443,1.443,0,0,0,.541,1.424,1.443,1.443,0,0,0,1.517.145l6.744-3.347,6.581,3.658a1.439,1.439,0,0,0,.667.181,1.44,1.44,0,0,0,.854-.256,1.442,1.442,0,0,0,.607-1.4l-1.1-7.449,5.513-5.128A1.443,1.443,0,0,0-4292.993,38.8Z" transform="translate(4355.006 -28.873)"/><path class="e" d="M-4115.381,168.769a.907.907,0,0,0-.281-.914l-3.565-3.1.535-4.695a.906.906,0,0,0-.41-.864.905.905,0,0,0-.956-.015l-4.051,2.431-4.3-1.959a.905.905,0,0,0-.948.123.906.906,0,0,0-.31.9l1.061,4.6-3.192,3.484a.907.907,0,0,0-.177.94.906.906,0,0,0,.765.574l4.707.414,2.327,4.112a.911.911,0,0,0,.3.315.9.9,0,0,0,.541.143.906.906,0,0,0,.783-.55l1.848-4.348,4.63-.942A.906.906,0,0,0-4115.381,168.769Z" transform="translate(4197.351 -138.321)"/><path class="e" d="M-4415.725,145.807a.674.674,0,0,0-.7-.147l-3.309,1.2-2.863-2.046a.675.675,0,0,0-.711-.046.675.675,0,0,0-.355.617l.118,3.517-2.831,2.091a.671.671,0,0,0-.263.662.674.674,0,0,0,.477.529l3.381.975,1.114,3.338a.674.674,0,0,0,.548.455.674.674,0,0,0,.65-.29l1.972-2.915,3.519-.028a.672.672,0,0,0,.313-.08.677.677,0,0,0,.289-.3.673.673,0,0,0-.075-.708l-2.163-2.776,1.061-3.355A.674.674,0,0,0-4415.725,145.807Z" transform="translate(4445.047 -126.244)"/></svg>