<svg xmlns="http://www.w3.org/2000/svg" xmlns:xlink="http://www.w3.org/1999/xlink" width="84" height="84" viewBox="0 0 84 84"><defs><style>.a{fill:#1ebc59;}.b{fill:#fff;}.c{filter:url(#a);}</style><filter id="a" x="0" y="0" width="84" height="84" filterUnits="userSpaceOnUse"><feOffset dy="3" input="SourceAlpha"/><feGaussianBlur stdDeviation="4" result="b"/><feFlood flood-opacity="0.161"/><feComposite operator="in" in2="b"/><feComposite in="SourceGraphic"/></filter></defs><g transform="translate(-235.833 206.5)"><g transform="translate(247.833 -197.5)"><g class="c" transform="matrix(1, 0, 0, 1, -12, -9)"><path class="a" d="M153.294,164.858a30,30,0,1,1-30-30A30,30,0,0,1,153.294,164.858Z" transform="translate(-81.29 -125.86)"/></g><g transform="translate(12.85 12.944)"><path class="b" d="M136.248,158.9a16.839,16.839,0,0,0-33.647-.312c-.011.245-.019.491-.019.737A16.539,16.539,0,0,0,105,167.953l-3.039,8.966,9.323-2.964a16.865,16.865,0,0,0,24.977-14.628C136.259,159.184,136.252,159.044,136.248,158.9Zm-16.828,14.47a14.142,14.142,0,0,1-7.79-2.325l-5.439,1.729,1.769-5.216a13.9,13.9,0,0,1-2.7-8.235c0-.461.023-.914.067-1.363a14.164,14.164,0,0,1,28.2.264c.029.362.048.728.048,1.1A14.12,14.12,0,0,1,119.42,173.372Z" transform="translate(-101.959 -142.618)"/><path class="b" d="M124.672,160.28c-.413-.206-2.444-1.2-2.822-1.331s-.654-.206-.929.2-1.066,1.333-1.307,1.605-.481.309-.894.1a11.246,11.246,0,0,1-3.319-2.033,12.28,12.28,0,0,1-2.3-2.835c-.241-.409-.025-.631.18-.835.188-.183.414-.478.62-.717a1.838,1.838,0,0,0,.15-.2,4.413,4.413,0,0,0,.264-.486.749.749,0,0,0-.035-.718c-.1-.2-.929-2.221-1.271-3.041s-.688-.683-.929-.683-.516-.033-.792-.033a1.522,1.522,0,0,0-1.1.512,4.578,4.578,0,0,0-1.444,3.415,5.086,5.086,0,0,0,.213,1.394,9.3,9.3,0,0,0,1.473,2.842c.206.271,2.856,4.543,7.05,6.182s4.2,1.094,4.954,1.025a4.172,4.172,0,0,0,2.786-1.947,3.426,3.426,0,0,0,.24-1.948C125.357,160.588,125.083,160.485,124.672,160.28Z" transform="translate(-99.498 -140.202)"/></g></g></g></svg>