<svg xmlns="http://www.w3.org/2000/svg" width="113" height="113" viewBox="0 0 113 113"><defs><style>.a{fill:#333;stroke:red;stroke-width:3px;}.b{fill:#f5f5f7;}.c{fill:#e0e3ee;}.d{fill:#c3cadd;}.e{fill:#f4b3b0;}.f{fill:#ef8f8f;}.g{fill:#e27171;}.h{fill:#595959;}</style></defs><g transform="translate(1.942 1.823)"><g transform="translate(-0.442 -0.323)"><g transform="translate(0 0)"><circle class="a" cx="55" cy="55" r="55"/></g><g transform="translate(21.279 11.623)"><path class="b" d="M-4889.575-900.04h66.844v50.594h-66.844Z" transform="translate(4889.575 922.395)"/><path class="c" d="M-4723-900.04h33.421v50.593H-4723Z" transform="translate(4756.421 922.395)"/><path class="c" d="M-4889.575-686.473h66.844v10.152h-66.844Z" transform="translate(4889.575 751.678)"/><path class="d" d="M-4723-686.47h33.421v10.15H-4723Z" transform="translate(4756.421 751.676)"/><path class="e" d="M-4889.34-969.373h66.749V-952.8h-66.749Z" transform="translate(4889.387 977.817)"/><path class="f" d="M-4723-969.37h33.374V-952.8H-4723Z" transform="translate(4756.421 977.815)"/><g transform="translate(13.66)"><g transform="translate(31.601)"><path class="g" d="M-4663.993-998.532v-8.966a3.962,3.962,0,0,1,3.961-3.961,3.961,3.961,0,0,1,3.961,3.961v8.966a3.961,3.961,0,0,1-3.961,3.961,3.962,3.962,0,0,1-3.961-3.962Z" transform="translate(4663.993 1011.459)"/></g><path class="g" d="M-4821.493-998.532v-8.966a3.961,3.961,0,0,1,3.96-3.961,3.96,3.96,0,0,1,3.961,3.961v8.966a3.96,3.96,0,0,1-3.961,3.961,3.962,3.962,0,0,1-3.96-3.962Z" transform="translate(4821.493 1011.459)"/></g></g></g><g transform="translate(39.018 47.479)"><path class="h" d="M-4795.3-824.691V-842.88h-4.205v-4.661h10.007v22.85Z" transform="translate(4799.506 847.541)"/><path class="h" d="M-4718.5-833.981v-4.89h5.379v4.89h3.1v4.4h-3.1v5.02h-5.379v-5.02h-10.822v-3.879l7.2-13.918h5.574l-6.78,13.4Z" transform="translate(4743.407 847.411)"/></g></g></svg>