<svg xmlns="http://www.w3.org/2000/svg" xmlns:xlink="http://www.w3.org/1999/xlink" width="40.726" height="40.726" viewBox="0 0 40.726 40.726"><defs><style>.a{fill:url(#a);}.b{fill:#fff;}</style><radialGradient id="a" cx="0.291" cy="0.998" r="1.008" gradientTransform="translate(0)" gradientUnits="objectBoundingBox"><stop offset="0" stop-color="#ffd676"/><stop offset="0.246" stop-color="#f2a454"/><stop offset="0.379" stop-color="#f05c3c"/><stop offset="0.7" stop-color="#c22f86"/><stop offset="0.957" stop-color="#6665ad"/><stop offset="0.985" stop-color="#5c6cb2"/></radialGradient></defs><circle class="a" cx="20.363" cy="20.363" r="20.363"/><g transform="translate(9.674 9.184)"><path class="b" d="M386.639,284.446h-8.928a6.355,6.355,0,0,1-6.349-6.348v-9.526a6.356,6.356,0,0,1,6.349-6.349h8.928a6.356,6.356,0,0,1,6.348,6.349V278.1A6.355,6.355,0,0,1,386.639,284.446Zm-8.928-20.594a4.726,4.726,0,0,0-4.721,4.72V278.1a4.726,4.726,0,0,0,4.721,4.721h8.928a4.726,4.726,0,0,0,4.72-4.721v-9.526a4.726,4.726,0,0,0-4.72-4.72Z" transform="translate(-371.363 -262.224)"/><path class="b" d="M383.092,280.175a5.91,5.91,0,0,1-5.9-5.9,6,6,0,0,1,1.81-4.284,5.643,5.643,0,0,1,4.123-1.62,6.115,6.115,0,0,1,4.411,1.792A5.715,5.715,0,0,1,389,274.292h0a6.052,6.052,0,0,1-1.749,4.15A5.808,5.808,0,0,1,383.092,280.175Zm-.137-9.82a3.673,3.673,0,0,0-2.571,1.059,4,4,0,0,0-1.207,2.857,3.915,3.915,0,1,0,7.829-.022c.051-2.365-1.422-3.82-3.944-3.893C383.027,270.355,382.991,270.355,382.955,270.355Z" transform="translate(-372.28 -263.19)"/><circle class="b" cx="1.377" cy="1.377" r="1.377" transform="translate(15.482 3.633)"/></g></svg>